<svg width="1200" height="250" viewBox="0 0 1200 250" fill="none" xmlns="http://www.w3.org/2000/svg">
<path d="M1113.18 169.999C1100.92 169.999 1092.03 168.221 1086.52 164.665C1081.08 161.036 1078.36 156.137 1078.36 149.967V148.879H1091.96V149.75C1091.96 152.871 1093.59 155.375 1096.86 157.262C1100.12 159.149 1105.56 160.092 1113.18 160.092C1121.23 160.092 1126.78 159.403 1129.83 158.024C1132.95 156.572 1134.51 154.685 1134.51 152.362C1134.51 150.33 1133.53 148.842 1131.57 147.899C1129.68 146.883 1127.29 146.193 1124.39 145.83C1121.49 145.467 1117.42 145.177 1112.2 144.959C1105.24 144.669 1099.5 144.197 1095.01 143.544C1090.58 142.818 1086.77 141.367 1083.58 139.189C1080.46 136.939 1078.9 133.601 1078.9 129.173C1078.9 124.093 1081.51 119.992 1086.74 116.871C1092.03 113.75 1100.85 112.189 1113.18 112.189C1124.79 112.189 1133.35 114.077 1138.86 117.851C1144.37 121.625 1147.24 126.56 1147.46 132.657H1133.96C1133.53 125.617 1126.6 122.097 1113.18 122.097C1099.4 122.097 1092.5 124.709 1092.5 129.935C1092.5 131.75 1093.41 133.129 1095.22 134.072C1097.11 134.943 1099.43 135.524 1102.19 135.814C1104.95 136.105 1108.83 136.359 1113.83 136.576C1121.09 136.867 1126.96 137.375 1131.46 138.1C1135.96 138.754 1139.84 140.242 1143.1 142.564C1146.37 144.814 1148 148.262 1148 152.907C1148 158.205 1145.35 162.378 1140.06 165.427C1134.83 168.475 1125.87 169.999 1113.18 169.999Z" fill="white" style="fill:white;fill-opacity:1;"/>
<path d="M1035.73 170C1027.9 170 1021.59 168.512 1016.8 165.536C1012.01 162.56 1008.75 158.496 1007.01 153.343H1005.38L1007.44 168.693H994.059V92.4844H1007.44V109.141C1007.44 112.408 1007.26 115.492 1006.9 118.395C1006.61 121.299 1006.1 124.819 1005.38 128.956H1007.01C1008.75 123.803 1012.01 119.738 1016.8 116.762C1021.66 113.714 1027.97 112.19 1035.73 112.19C1042.19 112.19 1047.81 113.424 1052.6 115.891C1057.39 118.359 1061.05 121.807 1063.59 126.234C1066.2 130.589 1067.51 135.561 1067.51 141.149C1067.51 146.738 1066.2 151.746 1063.59 156.173C1061.05 160.528 1057.39 163.939 1052.6 166.407C1047.81 168.802 1042.19 170 1035.73 170ZM1030.84 159.222C1038.16 159.222 1043.86 157.552 1047.92 154.214C1051.98 150.802 1054.02 146.448 1054.02 141.149C1054.02 135.851 1051.98 131.532 1047.92 128.194C1043.86 124.782 1038.16 123.077 1030.84 123.077C1023.44 123.077 1017.71 124.782 1013.65 128.194C1009.58 131.532 1007.55 135.851 1007.55 141.149C1007.55 146.448 1009.58 150.802 1013.65 154.214C1017.71 157.552 1023.44 159.222 1030.84 159.222Z" fill="white" style="fill:white;fill-opacity:1;"/>
<path d="M933.29 169.999C924.512 169.999 918.056 168.511 913.921 165.536C909.786 162.56 907.718 158.532 907.718 153.451C907.718 148.371 909.786 144.342 913.921 141.367C918.056 138.391 924.512 136.903 933.29 136.903C939.964 136.903 945.513 137.556 949.938 138.863C954.363 140.096 958.68 141.911 962.887 144.306V139.516C962.887 134.435 961.037 130.407 957.338 127.431C953.638 124.383 948.197 122.859 941.015 122.859C934.487 122.859 929.445 123.947 925.89 126.125C922.408 128.23 920.268 130.842 919.47 133.963H906.086C906.884 127.649 910.185 122.46 915.988 118.395C921.792 114.258 930.17 112.189 941.124 112.189C952.731 112.189 961.473 114.693 967.349 119.701C973.225 124.637 976.163 131.387 976.163 139.951V154.104C976.163 157.298 977.613 158.895 980.515 158.895C981.676 158.895 982.8 158.749 983.888 158.459V169.02C981.93 169.673 979.754 169.999 977.36 169.999C973.37 169.999 970.287 169.056 968.11 167.169C966.007 165.282 964.955 162.741 964.955 159.548V159.004H963.322V159.112C963.322 160.854 962.162 162.56 959.84 164.229C957.519 165.899 954.073 167.278 949.503 168.366C944.933 169.455 939.528 169.999 933.29 169.999ZM938.077 160.419C947.436 160.419 955.705 158.423 962.887 154.431V150.947C959.042 149.205 955.234 147.862 951.462 146.919C947.689 145.975 943.228 145.504 938.077 145.504C931.766 145.504 927.377 146.157 924.911 147.463C922.444 148.77 921.211 150.584 921.211 152.907C921.211 155.302 922.444 157.153 924.911 158.459C927.377 159.766 931.766 160.419 938.077 160.419Z" fill="white" style="fill:white;fill-opacity:1;"/>
<path d="M898.805 168.693H828.946V92.4844H844.072V155.956H898.805V168.693Z" fill="white" style="fill:white;fill-opacity:1;"/>
<path d="M749.648 169.999C737.389 169.999 728.502 168.221 722.989 164.665C717.548 161.036 714.828 156.137 714.828 149.967V148.879H728.429V149.75C728.429 152.871 730.062 155.375 733.326 157.262C736.591 159.149 742.031 160.092 749.648 160.092C757.701 160.092 763.25 159.403 766.297 158.024C769.416 156.572 770.976 154.685 770.976 152.362C770.976 150.33 769.997 148.842 768.038 147.899C766.152 146.883 763.758 146.193 760.856 145.83C757.955 145.467 753.892 145.177 748.669 144.959C741.705 144.669 735.974 144.197 731.476 143.544C727.051 142.818 723.243 141.367 720.051 139.189C716.931 136.939 715.372 133.601 715.372 129.173C715.372 124.093 717.983 119.992 723.206 116.871C728.502 113.75 737.316 112.189 749.648 112.189C761.255 112.189 769.815 114.077 775.329 117.851C780.842 121.625 783.707 126.56 783.925 132.657H770.432C769.997 125.617 763.069 122.097 749.648 122.097C735.865 122.097 728.974 124.709 728.974 129.935C728.974 131.75 729.88 133.129 731.694 134.072C733.58 134.943 735.901 135.524 738.658 135.814C741.415 136.105 745.296 136.359 750.301 136.576C757.556 136.867 763.432 137.375 767.929 138.1C772.427 138.754 776.308 140.242 779.572 142.564C782.837 144.814 784.469 148.262 784.469 152.907C784.469 158.205 781.821 162.378 776.526 165.427C771.303 168.475 762.343 169.999 749.648 169.999Z" fill="white" style="fill:white;fill-opacity:1;"/>
<path d="M690.831 157.588H709.112V168.693H656.772V157.588H677.882V131.459C677.882 128.774 677.302 126.887 676.141 125.798C675.053 124.637 673.203 124.056 670.591 124.056C668.125 124.056 665.804 124.528 663.627 125.471V114.149C666.964 112.843 670.7 112.189 674.835 112.189C680.494 112.189 684.556 113.351 687.022 115.673C689.561 117.996 690.831 121.661 690.831 126.669V157.588ZM682.343 103.806C679.732 103.806 677.664 103.117 676.141 101.738C674.618 100.359 673.856 98.5806 673.856 96.4032C673.856 94.2258 674.618 92.4476 676.141 91.0685C677.664 89.6895 679.732 89 682.343 89C684.882 89 686.914 89.6895 688.437 91.0685C689.96 92.4476 690.722 94.2258 690.722 96.4032C690.722 98.5806 689.96 100.359 688.437 101.738C686.914 103.117 684.882 103.806 682.343 103.806Z" fill="white" style="fill:white;fill-opacity:1;"/>
<path d="M614.41 169.999C606.648 169.999 599.974 168.729 594.388 166.189C588.874 163.649 584.667 160.201 581.765 155.846C578.936 151.491 577.521 146.592 577.521 141.149C577.521 135.705 578.936 130.806 581.765 126.451C584.667 122.024 588.874 118.54 594.388 116C599.974 113.46 606.648 112.189 614.41 112.189C621.446 112.189 627.613 113.242 632.908 115.347C638.276 117.452 642.484 120.355 645.531 124.056C648.65 127.758 650.536 131.967 651.189 136.685H637.696C636.898 132.838 634.504 129.609 630.514 126.996C626.524 124.383 621.156 123.076 614.41 123.076C609.477 123.076 605.233 123.875 601.678 125.472C598.124 127.068 595.44 129.246 593.626 132.004C591.812 134.762 590.906 137.81 590.906 141.149C590.906 144.488 591.812 147.536 593.626 150.294C595.44 153.052 598.124 155.229 601.678 156.826C605.233 158.423 609.477 159.221 614.41 159.221C621.156 159.221 626.524 157.915 630.514 155.302C634.504 152.689 636.898 149.459 637.696 145.613H651.189C650.536 150.33 648.65 154.54 645.531 158.241C642.484 161.87 638.276 164.737 632.908 166.842C627.613 168.947 621.446 169.999 614.41 169.999Z" fill="white" style="fill:white;fill-opacity:1;"/>
<path d="M520.453 169.999C511.675 169.999 505.219 168.511 501.084 165.536C496.949 162.56 494.881 158.532 494.881 153.451C494.881 148.371 496.949 144.342 501.084 141.367C505.219 138.391 511.675 136.903 520.453 136.903C527.127 136.903 532.676 137.556 537.101 138.863C541.527 140.096 545.843 141.911 550.05 144.306V139.516C550.05 134.435 548.2 130.407 544.501 127.431C540.801 124.383 535.36 122.859 528.179 122.859C521.65 122.859 516.608 123.947 513.053 126.125C509.571 128.23 507.431 130.842 506.633 133.963H493.249C494.047 127.649 497.348 122.46 503.151 118.395C508.955 114.258 517.333 112.189 528.287 112.189C539.894 112.189 548.636 114.693 554.512 119.701C560.388 124.637 563.326 131.387 563.326 139.951V154.104C563.326 157.298 564.777 158.895 567.678 158.895C568.839 158.895 569.963 158.749 571.052 158.459V169.02C569.093 169.673 566.917 169.999 564.523 169.999C560.533 169.999 557.45 169.056 555.273 167.169C553.17 165.282 552.118 162.741 552.118 159.548V159.004H550.486V159.112C550.486 160.854 549.325 162.56 547.004 164.229C544.682 165.899 541.236 167.278 536.666 168.366C532.096 169.455 526.691 169.999 520.453 169.999ZM525.241 160.419C534.599 160.419 542.869 158.423 550.05 154.431V150.947C546.206 149.205 542.397 147.862 538.625 146.919C534.853 145.975 530.391 145.504 525.241 145.504C518.929 145.504 514.54 146.157 512.074 147.463C509.608 148.77 508.374 150.584 508.374 152.907C508.374 155.302 509.608 157.153 512.074 158.459C514.54 159.766 518.929 160.419 525.241 160.419Z" fill="white" style="fill:white;fill-opacity:1;"/>
<path d="M467.727 157.588H488.401V168.693H430.947V157.588H454.342V110.339C454.342 107.653 453.726 105.766 452.493 104.678C451.332 103.516 449.264 102.936 446.29 102.936C444.767 102.936 443.388 103.081 442.155 103.371C440.994 103.589 439.689 104.024 438.238 104.678V93.464C441.647 91.9398 445.819 91.1777 450.752 91.1777C456.918 91.1777 461.27 92.3027 463.809 94.5527C466.421 96.8027 467.727 100.432 467.727 105.44V157.588Z" fill="white" style="fill:white;fill-opacity:1;"/>
<path d="M365.458 140.278V130.044H419.975V168.693H406.59L409.311 150.294H407.787C405.393 155.592 401.113 160.201 394.947 164.121C388.854 168.04 380.62 170 370.246 170C360.816 170 352.618 168.294 345.654 164.883C338.69 161.399 333.322 156.681 329.55 150.73C325.85 144.778 324 138.064 324 130.589C324 123.113 325.886 116.399 329.658 110.448C333.503 104.424 339.089 99.7059 346.416 96.2946C353.815 92.8834 362.629 91.1777 372.858 91.1777C382.651 91.1777 390.994 92.593 397.885 95.4237C404.849 98.1817 410.29 101.92 414.207 106.637C418.197 111.355 420.845 116.69 422.151 122.641H407.026C405.212 116.98 401.44 112.407 395.709 108.924C390.051 105.367 382.434 103.589 372.858 103.589C365.749 103.589 359.619 104.786 354.468 107.182C349.39 109.504 345.545 112.698 342.934 116.762C340.322 120.827 339.016 125.435 339.016 130.589C339.016 135.887 340.322 140.641 342.934 144.851C345.545 148.988 349.426 152.254 354.577 154.649C359.728 156.971 365.894 158.133 373.075 158.133C381.926 158.133 389.071 156.391 394.512 152.907C399.953 149.423 403.616 145.214 405.502 140.278H365.458Z" fill="white" style="fill:white;fill-opacity:1;"/>
<path d="M185.172 199.613L233.977 0L0 248.09L144.963 163.325L185.172 122.619V199.613Z" fill="url(#paint0_linear_125_6937)" style=""/>
<path d="M233.983 248.09V0L185.178 199.613H112.688L233.983 248.09Z" fill="url(#paint1_linear_125_6937)" style=""/>
<path d="M233.977 248.088H0L185.172 122.617L112.682 199.611L233.977 248.088Z" fill="url(#paint2_linear_125_6937)" style=""/>
<path d="M112.754 199.561L234 226.414V248.091H157.723L112.754 199.561Z" fill="url(#paint3_linear_125_6937)" style=""/>
<path d="M233.972 227.016V159.574L184.896 199.614H112.754L233.972 227.016Z" fill="url(#paint4_linear_125_6937)" style=""/>
<defs>
<linearGradient id="paint0_linear_125_6937" x1="116.988" y1="0" x2="116.988" y2="248.09" gradientUnits="userSpaceOnUse">
<stop stop-color="#3A413E" style="stop-color:#3A413E;stop-color:color(display-p3 0.2275 0.2549 0.2431);stop-opacity:1;"/>
<stop offset="0.405" stop-color="#80AE92" style="stop-color:#80AE92;stop-color:color(display-p3 0.5020 0.6824 0.5725);stop-opacity:1;"/>
<stop offset="1" stop-color="#A3D5BE" style="stop-color:#A3D5BE;stop-color:color(display-p3 0.6396 0.8353 0.7450);stop-opacity:1;"/>
</linearGradient>
<linearGradient id="paint1_linear_125_6937" x1="205.615" y1="38.2757" x2="275.279" y2="102.856" gradientUnits="userSpaceOnUse">
<stop offset="0.10621" stop-color="#9FB77E" style="stop-color:#9FB77E;stop-color:color(display-p3 0.6235 0.7176 0.4941);stop-opacity:1;"/>
<stop offset="0.791569" stop-color="#FACB37" style="stop-color:#FACB37;stop-color:color(display-p3 0.9800 0.7977 0.2172);stop-opacity:1;"/>
</linearGradient>
<linearGradient id="paint2_linear_125_6937" x1="209.718" y1="122.674" x2="36.7273" y2="272.063" gradientUnits="userSpaceOnUse">
<stop offset="0.202741" stop-color="#081B2F" style="stop-color:#081B2F;stop-color:color(display-p3 0.0314 0.1059 0.1843);stop-opacity:1;"/>
<stop offset="1" stop-color="#669CA9" style="stop-color:#669CA9;stop-color:color(display-p3 0.4000 0.6118 0.6627);stop-opacity:1;"/>
</linearGradient>
<linearGradient id="paint3_linear_125_6937" x1="82.146" y1="214.624" x2="246.206" y2="248.332" gradientUnits="userSpaceOnUse">
<stop offset="0.318804" stop-color="#06172B" style="stop-color:#06172B;stop-color:color(display-p3 0.0235 0.0902 0.1686);stop-opacity:1;"/>
<stop offset="1" stop-color="#416D7B" style="stop-color:#416D7B;stop-color:color(display-p3 0.2549 0.4275 0.4824);stop-opacity:1;"/>
</linearGradient>
<linearGradient id="paint4_linear_125_6937" x1="220.256" y1="140.588" x2="150.953" y2="213.15" gradientUnits="userSpaceOnUse">
<stop offset="0.156879" stop-color="#F5AF23" style="stop-color:#F5AF23;stop-color:color(display-p3 0.9608 0.6863 0.1373);stop-opacity:1;"/>
<stop offset="0.723794" stop-color="#F8781E" style="stop-color:#F8781E;stop-color:color(display-p3 0.9714 0.4696 0.1194);stop-opacity:1;"/>
<stop offset="1" stop-color="#FC2818" style="stop-color:#FC2818;stop-color:color(display-p3 0.9867 0.1569 0.0937);stop-opacity:1;"/>
</linearGradient>
</defs>
</svg>
